<?xml version="1.0" encoding="UTF-8" ?>
<!DOCTYPE svg PUBLIC "-//W3C//DTD SVG 1.1//EN" "http://www.w3.org/Graphics/SVG/1.1/DTD/svg11.dtd">
<svg width="533pt" height="533pt" viewBox="0 0 533 533" version="1.1" xmlns="http://www.w3.org/2000/svg">
<g id="#000000ff">
<path fill="#000000" opacity="1.00" d=" M 28.68 27.69 C 41.47 14.06 58.71 4.75 77.02 1.13 C 96.03 0.70 115.06 1.37 134.07 0.75 C 237.35 0.76 340.63 0.75 443.91 0.75 C 447.77 0.76 451.66 0.52 455.48 1.27 C 475.01 4.57 493.04 15.01 506.40 29.52 C 521.49 45.55 531.10 66.69 533.00 88.65 L 533.00 436.48 C 531.62 470.51 511.56 503.29 481.31 519.17 C 469.08 525.54 455.76 529.96 442.12 531.95 C 330.40 532.07 218.68 531.97 106.96 532.00 C 79.07 533.10 50.81 522.68 30.46 503.53 C 12.09 486.24 1.71 461.64 0.00 436.64 L 0.00 96.42 C 1.23 71.21 10.07 45.37 28.68 27.69 M 158.01 131.51 C 157.99 214.58 158.01 297.66 158.00 380.73 C 163.99 381.03 170.00 380.90 176.00 380.94 C 226.67 380.57 277.35 380.83 328.02 380.75 C 342.47 381.20 356.92 380.82 371.36 380.70 C 353.47 361.91 336.57 342.19 318.66 323.41 C 288.25 293.21 234.08 292.79 202.97 322.12 C 200.40 319.47 197.55 317.12 195.17 314.30 C 199.44 309.41 203.49 304.30 206.58 298.57 C 224.05 267.48 219.47 225.42 194.94 199.34 C 197.77 197.14 200.38 194.68 202.96 192.19 C 221.68 208.51 247.43 217.09 272.14 213.14 C 288.91 210.77 304.69 203.13 317.62 192.31 C 320.32 194.54 322.65 197.18 325.38 199.39 C 316.65 209.76 309.80 221.81 306.18 234.91 C 303.17 246.38 302.56 258.46 304.22 270.19 C 307.06 288.32 315.95 305.43 329.08 318.24 C 340.61 308.47 350.55 296.66 357.43 283.16 C 369.31 260.52 371.92 233.34 365.22 208.74 C 359.71 188.15 347.62 169.51 331.27 155.88 C 312.61 140.26 288.39 131.57 264.07 131.50 C 228.72 131.57 193.36 131.40 158.01 131.51 Z" />
</g>
<g id="#ffffffff">
<path fill="#ffffff" opacity="1.00" d=" M 158.01 131.51 C 193.36 131.40 228.72 131.57 264.07 131.50 C 288.39 131.57 312.61 140.26 331.27 155.88 C 347.62 169.51 359.71 188.15 365.22 208.74 C 371.92 233.34 369.31 260.52 357.43 283.16 C 350.55 296.66 340.61 308.47 329.08 318.24 C 315.95 305.43 307.06 288.32 304.22 270.19 C 302.56 258.46 303.17 246.38 306.18 234.91 C 309.80 221.81 316.65 209.76 325.38 199.39 C 322.65 197.18 320.32 194.54 317.62 192.31 C 304.69 203.13 288.91 210.77 272.14 213.14 C 247.43 217.09 221.68 208.51 202.96 192.19 C 200.38 194.68 197.77 197.14 194.94 199.34 C 219.47 225.42 224.05 267.48 206.58 298.57 C 203.49 304.30 199.44 309.41 195.17 314.30 C 197.55 317.12 200.40 319.47 202.97 322.12 C 234.08 292.79 288.25 293.21 318.66 323.41 C 336.57 342.19 353.47 361.91 371.36 380.70 C 356.92 380.82 342.47 381.20 328.02 380.75 C 277.35 380.83 226.67 380.57 176.00 380.94 C 170.00 380.90 163.99 381.03 158.00 380.73 C 158.01 297.66 157.99 214.58 158.01 131.51 Z" />
</g>
</svg>
